<?xml version="1.0" encoding="utf-8"?>
<!-- Generator: Adobe Illustrator 24.0.0, SVG Export Plug-In . SVG Version: 6.00 Build 0)  -->
<svg version="1.1" id="Layer_1" xmlns="http://www.w3.org/2000/svg" xmlns:xlink="http://www.w3.org/1999/xlink" x="0px" y="0px"
	 viewBox="0 0 120 120" style="enable-background:new 0 0 120 120;" xml:space="preserve">
<style type="text/css">
	.st0{fill:none;stroke:#0ECFCD;stroke-width:20;stroke-miterlimit:10;}
	.st1{fill:none;stroke:#0F71D0;stroke-width:20;stroke-miterlimit:10;}
	.st2{fill:#231F20;}
	.st3{fill:none;}
	.st4{fill:#FFFFFF;}
	.st5{fill:#0F71D0;}
	.st6{fill:#0ECFCD;}
	.st7{fill:#00AEEF;}
	.st8{fill:#1B75BC;}
	.st9{fill:none;stroke:#00AEEF;stroke-width:32;stroke-linecap:round;stroke-miterlimit:10;}
	.st10{fill:none;stroke:#0ECFCD;stroke-width:32;stroke-linecap:round;stroke-miterlimit:10;}
	.st11{fill:#1AC9FF;}
	.st12{fill:#1AC9FF;stroke:#1AC9FF;stroke-width:20;stroke-miterlimit:10;}
	.st13{fill:none;stroke:#1B75BC;stroke-width:20;stroke-miterlimit:10;}
	.st14{fill:#DDDF1A;stroke:#DDDF1A;stroke-width:20;stroke-miterlimit:10;}
	.st15{fill:none;stroke:#00AEEF;stroke-width:20;stroke-miterlimit:10;}
	.st16{fill:none;stroke:#E6E7E8;stroke-miterlimit:10;}
	.st17{fill:none;stroke:#0F71D0;stroke-width:20;stroke-linecap:round;stroke-miterlimit:10;}
	.st18{fill:none;stroke:#0ECFCD;stroke-width:20;stroke-linecap:round;stroke-miterlimit:10;}
	.st19{fill:none;stroke:#00AEEF;stroke-width:16;stroke-linecap:round;stroke-miterlimit:10;}
	.st20{fill:#0ECFCD;stroke:#0ECFCD;stroke-width:16;stroke-linecap:round;stroke-linejoin:round;stroke-miterlimit:10;}
	.st21{fill:#58595B;}
	.st22{fill:none;stroke:#00AEEF;stroke-width:20;stroke-linecap:round;stroke-miterlimit:10;}
	.st23{fill:#0ECFCD;stroke:#0ECFCD;stroke-width:15;stroke-linecap:round;stroke-linejoin:round;stroke-miterlimit:10;}
	.st24{opacity:0.4;fill:#00AEEF;}
	.st25{opacity:0.4;fill:#0ECFCD;}
</style>
<g>
	<g>
		<path class="st7" d="M70,97.3c-20.6,0-37.3-16.8-37.3-37.3S49.4,22.7,70,22.7s37.3,16.8,37.3,37.3S90.6,97.3,70,97.3z M70,38.7
			c-11.8,0-21.3,9.6-21.3,21.3S58.2,81.3,70,81.3S91.3,71.8,91.3,60S81.7,38.7,70,38.7z"/>
	</g>
	<path class="st6" d="M75.6,54.3L40.8,19.5c-1.5-1.5-3.5-2.3-5.7-2.3s-4.2,0.8-5.7,2.3c-22.3,22.3-22.3,58.7,0,81
		c1.6,1.6,3.6,2.3,5.7,2.3s4.1-0.8,5.7-2.3l34.9-34.9C78.7,62.5,78.7,57.5,75.6,54.3z"/>
	<path class="st8" d="M48.6,60c0-8.8,5.4-16.4,13-19.6L49.8,28.6C39.5,35.2,32.6,46.8,32.6,60s6.9,24.8,17.2,31.4l11.8-11.8
		C54,76.4,48.6,68.8,48.6,60z"/>
</g>
</svg>
